<?xml version="1.0" encoding="UTF-8"?>
<svg width="30px" height="30px" viewBox="0 0 30 30" version="1.1" xmlns="http://www.w3.org/2000/svg" xmlns:xlink="http://www.w3.org/1999/xlink">
    <title>Combined Shape</title>
    <g id="Page-1" stroke="none" stroke-width="1" fill="none" fill-rule="evenodd">
        <g id="Artboard" fill="#000000">
            <path d="M25,0 C27.7614237,-5.07265313e-16 30,2.23857625 30,5 L30,25 C30,27.7614237 27.7614237,30 25,30 L5,30 C2.23857625,30 -1.43817996e-15,27.7614237 0,25 L0,5 C-3.38176876e-16,2.23857625 2.23857625,-1.26909153e-15 5,0 L25,0 Z M11.9890296,3.38088161 C6.81891524,4.71682154 3,9.41243305 3,15 C3,21.627417 8.372583,27 15,27 C19.1812239,27 22.8629835,24.8615387 25.0109704,21.6191184 C24.0488086,21.8677377 23.03985,22 22,22 C15.372583,22 10,16.627417 10,10 C10,7.55381053 10.7319387,5.27857451 11.9890296,3.38088161 Z M21,13 L20.4122147,14.190983 L19.097887,14.381966 L20.0489435,15.309017 L19.8244295,16.618034 L21,16 L22.1755705,16.618034 L21.9510565,15.309017 L22.902113,14.381966 L21.5877853,14.190983 L21,13 Z M15,10 L14.4122147,11.190983 L13.097887,11.381966 L14.0489435,12.309017 L13.8244295,13.618034 L15,13 L16.1755705,13.618034 L15.9510565,12.309017 L16.902113,11.381966 L15.5877853,11.190983 L15,10 Z M23.5,4 L22.4713758,6.08422026 L20.1713022,6.41844052 L21.8356511,8.04077974 L21.4427516,10.3315595 L23.5,9.25 L25.5572484,10.3315595 L25.1643489,8.04077974 L26.8286978,6.41844052 L24.5286242,6.08422026 L23.5,4 Z M16.5,3 L15.7652684,4.48872876 L14.1223587,4.72745751 L15.3111794,5.88627124 L15.0305369,7.52254249 L16.5,6.75 L17.9694631,7.52254249 L17.6888206,5.88627124 L18.8776413,4.72745751 L17.2347316,4.48872876 L16.5,3 Z" id="Combined-Shape"></path>
        </g>
    </g>
</svg>